<?xml version="1.0" encoding="utf-8"?>
<!-- Generator: Adobe Illustrator 19.1.0, SVG Export Plug-In . SVG Version: 6.00 Build 0)  -->
<svg version="1.1" id="Layer_1" xmlns="http://www.w3.org/2000/svg" xmlns:xlink="http://www.w3.org/1999/xlink" x="0px" y="0px"
	 viewBox="0 0 264 42.8" style="enable-background:new 0 0 264 42.8;" xml:space="preserve">
<style type="text/css">
	.st0{fill:#2991EB;}
</style>
<path class="st0" d="M6.5,10.7c0-1,0.2-1.9,0.6-2.7c0.4-0.9,1-1.6,1.8-2.2c0.8-0.6,1.8-1.1,2.9-1.5c1.1-0.4,2.4-0.5,3.8-0.5
	c2.2,0,4.3,0.4,6.3,1.1c2,0.7,4,1.9,6,3.5l2.8-3.7c-2.2-1.8-4.5-3.1-6.8-3.9c-2.3-0.9-5.1-1.3-8.2-1.3c-2,0-3.9,0.3-5.6,0.9
	C8.4,0.9,6.9,1.7,5.7,2.7C4.4,3.8,3.4,5,2.7,6.4c-0.7,1.4-1,3-1,4.7c0,1.8,0.3,3.3,0.9,4.6c0.6,1.3,1.4,2.4,2.6,3.4
	c1.2,1,2.7,1.8,4.5,2.5c1.8,0.7,3.9,1.3,6.4,1.8c2.2,0.5,4.1,1,5.5,1.5c1.4,0.5,2.6,1.1,3.4,1.8c0.8,0.7,1.4,1.4,1.7,2.2
	c0.3,0.8,0.5,1.7,0.5,2.7c0,2.2-0.9,4-2.6,5.3c-1.7,1.3-4,2-6.9,2c-3,0-5.6-0.5-7.9-1.5C7.5,36.5,5.2,35,3,33l-3,3.5
	c2.6,2.3,5.3,4,8.1,5.2c2.8,1.1,6,1.7,9.4,1.7c2.1,0,4.1-0.3,5.9-0.9c1.8-0.6,3.3-1.4,4.6-2.4c1.3-1.1,2.3-2.3,3-3.8
	c0.7-1.5,1.1-3.2,1.1-5c0-3.3-1.1-5.9-3.4-7.8c-2.3-1.9-5.8-3.3-10.5-4.4c-2.4-0.5-4.3-1-5.8-1.6c-1.5-0.5-2.7-1.2-3.5-1.8
	C7.9,15,7.4,14.3,7,13.4C6.7,12.6,6.5,11.7,6.5,10.7L6.5,10.7z M80,0H49.1v42.8h31.2v-4.4H53.9v-15h23.3V19H53.9V4.4H80V0L80,0z
	 M133.2,8.1v34.6h4.8V0h-4.9l-15.6,23.3L102,0h-4.9v42.8h4.7V8.2L117.4,31h0.2L133.2,8.1L133.2,8.1z M175.5,0h-18.2v42.8h19
	c2.3,0,4.4-0.3,6.4-0.8c1.9-0.5,3.6-1.3,4.9-2.3c1.4-1,2.4-2.2,3.1-3.7c0.7-1.5,1.1-3.1,1.1-4.9c0-1.5-0.2-2.8-0.7-3.9
	c-0.5-1.1-1.1-2.1-2-2.9c-0.8-0.8-1.8-1.5-2.9-2.1c-1.1-0.6-2.3-1.1-3.6-1.4c0.9-0.4,1.7-0.8,2.5-1.4c0.8-0.5,1.5-1.2,2.2-2
	c0.7-0.8,1.2-1.8,1.6-2.8c0.4-1.1,0.6-2.3,0.6-3.7c0-1.6-0.3-3.1-1-4.4c-0.7-1.3-1.6-2.4-2.8-3.4c-1.2-0.9-2.7-1.6-4.4-2.1
	C179.6,0.3,177.6,0,175.5,0L175.5,0z M174.7,19.1h-12.6V4.3h13c3.1,0,5.4,0.6,7,1.9c1.6,1.3,2.4,3,2.4,5.1c0,2.5-0.9,4.4-2.7,5.7
	C180,18.4,177.6,19.1,174.7,19.1L174.7,19.1z M176.4,38.4h-14.4V23.3h13.5c3.7,0,6.6,0.6,8.5,1.9c1.9,1.3,2.9,3.1,2.9,5.5
	c0,2.4-0.9,4.3-2.8,5.7C182.3,37.8,179.7,38.4,176.4,38.4L176.4,38.4z M209,0v42.8h4.8V0H209L209,0z M249.7,4.5H264V0h-33.6v4.5
	h14.4v38.3h4.9V4.5z"/>
</svg>
