<?xml version="1.0" encoding="utf-8"?>
<!-- Generator: Adobe Illustrator 19.1.0, SVG Export Plug-In . SVG Version: 6.00 Build 0)  -->
<svg version="1.1" id="Layer_1" xmlns="http://www.w3.org/2000/svg" xmlns:xlink="http://www.w3.org/1999/xlink" x="0px" y="0px"
	 viewBox="0 0 160 98" style="enable-background:new 0 0 160 98;" xml:space="preserve">
<style type="text/css">
	.st0{opacity:0.2;clip-path:url(#SVGID_2_);fill:#2991EB;}
	.st1{clip-path:url(#SVGID_4_);fill:#FFFFFF;}
	.st2{fill:none;stroke:#301A28;stroke-width:2;stroke-miterlimit:10;}
	.st3{clip-path:url(#SVGID_6_);fill:#FFFFFF;}
	.st4{clip-path:url(#SVGID_8_);}
	.st5{clip-path:url(#SVGID_10_);fill:#2991EB;}
	.st6{clip-path:url(#SVGID_12_);fill:none;stroke:#301A28;stroke-width:4;stroke-miterlimit:10;}
	.st7{fill:none;stroke:#301A28;stroke-width:2;stroke-linecap:square;stroke-miterlimit:10;}
	.st8{clip-path:url(#SVGID_14_);fill:#FFFFFF;}
	.st9{clip-path:url(#SVGID_16_);fill:#FFFFFF;}
	.st10{fill:none;stroke:#1E1D1D;stroke-width:2;stroke-miterlimit:10;}
	.st11{clip-path:url(#SVGID_18_);fill:#301A28;}
	.st12{clip-path:url(#SVGID_20_);fill:#2991EB;}
	.st13{clip-path:url(#SVGID_22_);fill:#FFFFFF;}
	.st14{opacity:0.2;clip-path:url(#SVGID_24_);fill:#2991EB;}
	.st15{clip-path:url(#SVGID_26_);}
	.st16{clip-path:url(#SVGID_28_);fill:#2991EB;}
	.st17{clip-path:url(#SVGID_30_);fill:none;stroke:#301A28;stroke-width:4;stroke-miterlimit:10;}
	.st18{clip-path:url(#SVGID_32_);fill:#FFFFFF;}
	.st19{clip-path:url(#SVGID_34_);fill:#FFFFFF;}
	.st20{clip-path:url(#SVGID_36_);fill:#301A28;}
	.st21{clip-path:url(#SVGID_38_);fill:#D8D8D8;}
	.st22{clip-path:url(#SVGID_40_);fill:#D8D8D8;}
	.st23{clip-path:url(#SVGID_42_);fill:#D8D8D8;}
	.st24{clip-path:url(#SVGID_44_);}
	.st25{clip-path:url(#SVGID_46_);fill:#FFFFFF;}
	.st26{clip-path:url(#SVGID_48_);fill:none;stroke:#301A28;stroke-width:4;stroke-miterlimit:10;}
	.st27{clip-path:url(#SVGID_50_);fill:#301A28;}
</style>
<g>
	<defs>
		<path id="SVGID_1_" d="M0,53c0-17.1,13.9-31,31-31h98c17.1,0,31,13.9,31,31c0,17.1-13.9,31-31,31H31C13.9,84,0,70.1,0,53z"/>
	</defs>
	<clipPath id="SVGID_2_">
		<use xlink:href="#SVGID_1_"  style="overflow:visible;"/>
	</clipPath>
	<rect x="-5" y="17" class="st0" width="170" height="72"/>
</g>
<g>
	<defs>
		<path id="SVGID_3_" d="M49,72.2c12.7,0,23-3.5,23-16.2S61.7,33,49,33S26,43.3,26,56S36.3,72.2,49,72.2z"/>
	</defs>
	<clipPath id="SVGID_4_">
		<use xlink:href="#SVGID_3_"  style="overflow:visible;"/>
	</clipPath>
	<rect x="21" y="28" class="st1" width="56" height="49.2"/>
</g>
<path class="st2" d="M49,72.2c12.7,0,23-3.5,23-16.2S61.7,33,49,33S26,43.3,26,56S36.3,72.2,49,72.2z"/>
<g>
	<defs>
		<circle id="SVGID_5_" cx="49" cy="21.9" r="15.9"/>
	</defs>
	<clipPath id="SVGID_6_">
		<use xlink:href="#SVGID_5_"  style="overflow:visible;"/>
	</clipPath>
	<rect x="28.1" y="1" class="st3" width="41.7" height="41.7"/>
</g>
<circle class="st2" cx="49" cy="21.9" r="15.9"/>
<g>
	<defs>
		<path id="SVGID_7_" d="M32,14.5V18c0,3.5,2.8,5.1,5.8,3.2l1.9-1.2c5-3.2,13.3-3.2,18.4,0l1.9,1.2c3,1.9,5.8,0.4,5.8-3.2v-3.5
			c0-6.8-5.4-13.4-12.1-14.7L49.2-1l-0.2,0l-0.2,0l-4.8,0.9C37.4,1.2,32,7.7,32,14.5z M34,14.5c0-5.9,4.7-11.6,10.5-12.6L49.2,1
			l-0.4,0l4.4,0.8C59,2.9,63.7,8.6,63.7,14.5V18c0,2-1,2.5-2.7,1.5l-1.9-1.2c-5.7-3.6-14.8-3.6-20.5,0l-1.9,1.2C35,20.5,34,20,34,18
			V14.5z M12-21h73.7v63H12V-21z"/>
	</defs>
	<clipPath id="SVGID_8_">
		<use xlink:href="#SVGID_7_"  style="overflow:visible;"/>
	</clipPath>
	<g class="st4">
		<defs>
			<path id="SVGID_9_" d="M33,14.5c0-6.4,5.1-12.4,11.3-13.6L49.1,0l4.4,0.8C59.7,2,64.7,8.2,64.7,14.5V18c0,2.8-1.9,3.8-4.2,2.3
				l-1.9-1.2c-5.4-3.4-14.1-3.4-19.5,0l-1.9,1.2C34.9,21.8,33,20.8,33,18V14.5z"/>
		</defs>
		<clipPath id="SVGID_10_">
			<use xlink:href="#SVGID_9_"  style="overflow:visible;"/>
		</clipPath>
		<path class="st5" d="M33,14.5c0-6.4,5.1-12.4,11.3-13.6L49.1,0l4.4,0.8C59.7,2,64.7,8.2,64.7,14.5V18c0,2.8-1.9,3.8-4.2,2.3
			l-1.9-1.2c-5.4-3.4-14.1-3.4-19.5,0l-1.9,1.2C34.9,21.8,33,20.8,33,18V14.5z"/>
	</g>
</g>
<g>
	<defs>
		<path id="SVGID_11_" d="M33,14.5c0-6.4,5.1-12.4,11.3-13.6L49.1,0l4.4,0.8C59.7,2,64.7,8.2,64.7,14.5V18c0,2.8-1.9,3.8-4.2,2.3
			l-1.9-1.2c-5.4-3.4-14.1-3.4-19.5,0l-1.9,1.2C34.9,21.8,33,20.8,33,18V14.5z"/>
	</defs>
	<clipPath id="SVGID_12_">
		<use xlink:href="#SVGID_11_"  style="overflow:visible;"/>
	</clipPath>
	<path class="st6" d="M33,14.5c0-6.4,5.1-12.4,11.3-13.6L49.1,0l4.4,0.8C59.7,2,64.7,8.2,64.7,14.5V18c0,2.8-1.9,3.8-4.2,2.3
		l-1.9-1.2c-5.4-3.4-14.1-3.4-19.5,0l-1.9,1.2C34.9,21.8,33,20.8,33,18V14.5z"/>
</g>
<path class="st7" d="M34.5,17c0,0,5.1-4.9,14.6-5s14.5,5,14.5,5"/>
<line class="st7" x1="49" y1="2.5" x2="49" y2="11.5"/>
<line class="st7" x1="56" y1="3.5" x2="56" y2="7.6"/>
<line class="st7" x1="42" y1="3.5" x2="42" y2="7.6"/>
<g>
	<defs>
		<path id="SVGID_13_" d="M107,72.2c12.7,0,23-3.5,23-16.2s-10.3-23-23-23c-12.7,0-23,10.3-23,23S94.3,72.2,107,72.2z"/>
	</defs>
	<clipPath id="SVGID_14_">
		<use xlink:href="#SVGID_13_"  style="overflow:visible;"/>
	</clipPath>
	<rect x="79" y="28" class="st8" width="56" height="49.2"/>
</g>
<path class="st2" d="M107,72.2c12.7,0,23-3.5,23-16.2s-10.3-23-23-23S84,43.3,84,56S94.3,72.2,107,72.2z"/>
<g>
	<defs>
		<circle id="SVGID_15_" cx="107" cy="21.9" r="15.9"/>
	</defs>
	<clipPath id="SVGID_16_">
		<use xlink:href="#SVGID_15_"  style="overflow:visible;"/>
	</clipPath>
	<rect x="86.1" y="1" class="st9" width="41.7" height="41.7"/>
</g>
<circle class="st10" cx="107" cy="21.9" r="15.9"/>
<g>
	<defs>
		<path id="SVGID_17_" d="M110.1,8.8c14.8,4.7,11.3,10.5,10.7,1.7c-0.2-2.9,0.5-8.5-1-8.1c-2.4,0.7-8.5,3.6-14,3.3
			c-8.2-0.5-14.6,7.4-14.6,16.2c0,6.3,2.1-5.6,8.8-11C102.5,8.7,105.9,7.5,110.1,8.8z"/>
	</defs>
	<clipPath id="SVGID_18_">
		<use xlink:href="#SVGID_17_"  style="overflow:visible;"/>
	</clipPath>
	<rect x="86.1" y="-2.6" class="st11" width="40.4" height="31.3"/>
</g>
<path class="st2" d="M110.1,8.8c14.8,4.7,11.3,10.5,10.7,1.7c-0.2-2.9,0.5-8.5-1-8.1c-2.4,0.7-8.5,3.6-14,3.3
	c-8.2-0.5-14.6,7.4-14.6,16.2c0,6.3,2.1-5.6,8.8-11C102.5,8.7,105.9,7.5,110.1,8.8z"/>
<g>
	<defs>
		<polygon id="SVGID_19_" points="103,43 106.7,41 110,43 110,62 106.6,67 103,62 		"/>
	</defs>
	<clipPath id="SVGID_20_">
		<use xlink:href="#SVGID_19_"  style="overflow:visible;"/>
	</clipPath>
	<rect x="98" y="36" class="st12" width="17" height="36"/>
</g>
<g>
	<defs>
		<path id="SVGID_21_" d="M78,96.5c16,0,29-4.5,29-20.5S94,47,78,47S49,60,49,76S62,96.5,78,96.5z"/>
	</defs>
	<clipPath id="SVGID_22_">
		<use xlink:href="#SVGID_21_"  style="overflow:visible;"/>
	</clipPath>
	<rect x="44" y="42" class="st13" width="68" height="59.5"/>
</g>
<path class="st2" d="M78,96.5c16,0,29-4.5,29-20.5S94,47,78,47S49,60,49,76S62,96.5,78,96.5z"/>
<g>
	<defs>
		<polygon id="SVGID_23_" points="74,58 78.7,56 83,58 83,84 78.6,89 74,84 		"/>
	</defs>
	<clipPath id="SVGID_24_">
		<use xlink:href="#SVGID_23_"  style="overflow:visible;"/>
	</clipPath>
	<rect x="69" y="51" class="st14" width="19" height="43"/>
</g>
<g>
	<defs>
		<path id="SVGID_25_" d="M64,62h-1v1v8v0.6l0.5,0.3l5.1,3l0.5,0.3l0.5-0.3l4.9-3l0.5-0.3V71v-8v-1h-1H64z M64,64h10l-1-1v8l0.5-0.9
			l-4.9,3l1,0l-5.1-3L65,71v-8L64,64z M43,42h52v53.2H43V42z"/>
	</defs>
	<clipPath id="SVGID_26_">
		<use xlink:href="#SVGID_25_"  style="overflow:visible;"/>
	</clipPath>
	<g class="st15">
		<defs>
			<polygon id="SVGID_27_" points="64,63 74,63 74,71 69.1,74 64,71 			"/>
		</defs>
		<clipPath id="SVGID_28_">
			<use xlink:href="#SVGID_27_"  style="overflow:visible;"/>
		</clipPath>
		<polygon class="st16" points="64,63 74,63 74,71 69.1,74 64,71 		"/>
	</g>
</g>
<g>
	<defs>
		<polygon id="SVGID_29_" points="64,63 74,63 74,71 69.1,74 64,71 		"/>
	</defs>
	<clipPath id="SVGID_30_">
		<use xlink:href="#SVGID_29_"  style="overflow:visible;"/>
	</clipPath>
	<polygon class="st17" points="64,63 74,63 74,71 69.1,74 64,71 	"/>
</g>
<g>
	<defs>
		<circle id="SVGID_31_" cx="78" cy="33" r="20"/>
	</defs>
	<clipPath id="SVGID_32_">
		<use xlink:href="#SVGID_31_"  style="overflow:visible;"/>
	</clipPath>
	<rect x="53" y="8" class="st18" width="50" height="50"/>
</g>
<circle class="st2" cx="78" cy="33" r="20"/>
<g>
	<defs>
		<circle id="SVGID_33_" cx="78" cy="33" r="20"/>
	</defs>
	<clipPath id="SVGID_34_">
		<use xlink:href="#SVGID_33_"  style="overflow:visible;"/>
	</clipPath>
	<rect x="53" y="8" class="st19" width="50" height="50"/>
</g>
<circle class="st2" cx="78" cy="33" r="20"/>
<g>
	<defs>
		<path id="SVGID_35_" d="M78,53c11,0,20-9,20-20s-1.9,12.3-19.7,12.4S58,22,58,33S67,53,78,53z"/>
	</defs>
	<clipPath id="SVGID_36_">
		<use xlink:href="#SVGID_35_"  style="overflow:visible;"/>
	</clipPath>
	<rect x="53" y="25" class="st20" width="50" height="33"/>
</g>
<path class="st2" d="M78,53c11,0,20-9,20-20s-1.9,12.3-19.7,12.4S58,22,58,33S67,53,78,53z"/>
<g>
	<defs>
		<circle id="SVGID_37_" cx="48.5" cy="44.5" r="1.5"/>
	</defs>
	<clipPath id="SVGID_38_">
		<use xlink:href="#SVGID_37_"  style="overflow:visible;"/>
	</clipPath>
	<rect x="42" y="38" class="st21" width="13" height="13"/>
</g>
<g>
	<defs>
		<circle id="SVGID_39_" cx="48.5" cy="51.5" r="1.5"/>
	</defs>
	<clipPath id="SVGID_40_">
		<use xlink:href="#SVGID_39_"  style="overflow:visible;"/>
	</clipPath>
	<rect x="42" y="45" class="st22" width="13" height="13"/>
</g>
<g>
	<defs>
		<circle id="SVGID_41_" cx="48.5" cy="58.5" r="1.5"/>
	</defs>
	<clipPath id="SVGID_42_">
		<use xlink:href="#SVGID_41_"  style="overflow:visible;"/>
	</clipPath>
	<rect x="42" y="52" class="st23" width="13" height="13"/>
</g>
<g>
	<defs>
		<path id="SVGID_43_" d="M69.5,43v1.5c0,3.6,2.9,6.5,6.5,6.5h4c3.6,0,6.5-2.9,6.5-6.5V43c0-2.8-2.2-5-5-5h-7
			C71.7,38,69.5,40.2,69.5,43z M71.5,43c0-1.7,1.3-3,3-3h7c1.7,0,3,1.3,3,3v1.5c0,2.5-2,4.5-4.5,4.5h-4c-2.5,0-4.5-2-4.5-4.5V43z
			 M49.5,18h57v53h-57V18z"/>
	</defs>
	<clipPath id="SVGID_44_">
		<use xlink:href="#SVGID_43_"  style="overflow:visible;"/>
	</clipPath>
	<g class="st24">
		<defs>
			<path id="SVGID_45_" d="M70.5,43c0-2.2,1.8-4,4-4h7c2.2,0,4,1.8,4,4v1.5c0,3-2.5,5.5-5.5,5.5h-4c-3,0-5.5-2.5-5.5-5.5V43z"/>
		</defs>
		<clipPath id="SVGID_46_">
			<use xlink:href="#SVGID_45_"  style="overflow:visible;"/>
		</clipPath>
		<path class="st25" d="M70.5,43c0-2.2,1.8-4,4-4h7c2.2,0,4,1.8,4,4v1.5c0,3-2.5,5.5-5.5,5.5h-4c-3,0-5.5-2.5-5.5-5.5V43z"/>
	</g>
</g>
<g>
	<defs>
		<path id="SVGID_47_" d="M70.5,43c0-2.2,1.8-4,4-4h7c2.2,0,4,1.8,4,4v1.5c0,3-2.5,5.5-5.5,5.5h-4c-3,0-5.5-2.5-5.5-5.5V43z"/>
	</defs>
	<clipPath id="SVGID_48_">
		<use xlink:href="#SVGID_47_"  style="overflow:visible;"/>
	</clipPath>
	<path class="st26" d="M70.5,43c0-2.2,1.8-4,4-4h7c2.2,0,4,1.8,4,4v1.5c0,3-2.5,5.5-5.5,5.5h-4c-3,0-5.5-2.5-5.5-5.5V43z"/>
</g>
<g>
	<defs>
		<path id="SVGID_49_" d="M72,11c0-2.8,2.2-5,5-5h2c2.8,0,5,2.2,5,5v6c0,2.8-2.2,5-5,5h-2c-2.8,0-5-2.2-5-5V11z"/>
	</defs>
	<clipPath id="SVGID_50_">
		<use xlink:href="#SVGID_49_"  style="overflow:visible;"/>
	</clipPath>
	<rect x="67" y="1" class="st27" width="22" height="26"/>
</g>
</svg>
