<?xml version="1.0" encoding="utf-8"?>
<!-- Generator: Adobe Illustrator 19.1.0, SVG Export Plug-In . SVG Version: 6.00 Build 0)  -->
<svg version="1.1" id="Layer_1" xmlns="http://www.w3.org/2000/svg" xmlns:xlink="http://www.w3.org/1999/xlink" x="0px" y="0px"
	 viewBox="0 0 149 107" style="enable-background:new 0 0 149 107;" xml:space="preserve">
<style type="text/css">
	.st0{fill:none;stroke:#301A28;stroke-width:2;stroke-linecap:square;stroke-miterlimit:10;}
	.st1{opacity:0.3;clip-path:url(#SVGID_2_);fill:#E0E0E0;}
	.st2{clip-path:url(#SVGID_4_);fill:#FFFFFF;}
	.st3{fill:none;stroke:#301A28;stroke-width:2;stroke-miterlimit:10;}
	.st4{fill:none;stroke:#E3E3E3;stroke-width:2;stroke-miterlimit:10;stroke-dasharray:3,3;}
	.st5{opacity:0.2;clip-path:url(#SVGID_6_);fill:#B1B1B1;}
	.st6{clip-path:url(#SVGID_8_);fill:#2991EB;}
	.st7{clip-path:url(#SVGID_10_);fill:#301A28;}
	.st8{clip-path:url(#SVGID_12_);fill:#301A28;}
</style>
<line class="st0" x1="10" y1="106" x2="148" y2="106"/>
<g>
	<defs>
		<path id="SVGID_1_" d="M0,7c0-3.9,3.1-7,7-7h66c3.9,0,7,3.1,7,7v31c0,3.9-3.1,7-7,7H7c-3.9,0-7-3.1-7-7V7z"/>
	</defs>
	<clipPath id="SVGID_2_">
		<use xlink:href="#SVGID_1_"  style="overflow:visible;"/>
	</clipPath>
	<rect x="-5" y="-5" class="st1" width="90" height="55"/>
</g>
<g>
	<defs>
		<circle id="SVGID_3_" cx="79" cy="59" r="45"/>
	</defs>
	<clipPath id="SVGID_4_">
		<use xlink:href="#SVGID_3_"  style="overflow:visible;"/>
	</clipPath>
	<rect x="29" y="9" class="st2" width="100" height="100"/>
</g>
<circle class="st3" cx="79" cy="59" r="45"/>
<circle class="st4" cx="79" cy="59" r="35"/>
<g>
	<defs>
		<circle id="SVGID_5_" cx="79" cy="59" r="9"/>
	</defs>
	<clipPath id="SVGID_6_">
		<use xlink:href="#SVGID_5_"  style="overflow:visible;"/>
	</clipPath>
	<rect x="65" y="45" class="st5" width="28" height="28"/>
</g>
<g>
	<defs>
		<path id="SVGID_7_" d="M95.4,58c0.4-1,0.6-2.2,0.6-3.4c0-4.1-2.7-7.5-6.5-8.6L79.5,58H95.4z"/>
	</defs>
	<clipPath id="SVGID_8_">
		<use xlink:href="#SVGID_7_"  style="overflow:visible;"/>
	</clipPath>
	<rect x="74.5" y="41" class="st6" width="26.5" height="22"/>
</g>
<line class="st0" x1="105.5" y1="95.5" x2="114" y2="104"/>
<line class="st0" x1="52.5" y1="95.5" x2="44" y2="104"/>
<line class="st0" x1="95.7" y1="38.6" x2="79.4" y2="57.8"/>
<line class="st0" x1="96.3" y1="58.8" x2="79" y2="58.8"/>
<g>
	<defs>
		
			<rect id="SVGID_9_" x="103.6" y="22.5" transform="matrix(-0.707 -0.7072 0.7072 -0.707 178.8491 121.1302)" width="21.8" height="2"/>
	</defs>
	<clipPath id="SVGID_10_">
		<use xlink:href="#SVGID_9_"  style="overflow:visible;"/>
	</clipPath>
	<rect x="101.1" y="10.1" class="st7" width="26.9" height="26.9"/>
</g>
<path class="st3" d="M110.3,18.8c2.9-2.9,7.4-3.2,9.9-0.7c2.5,2.5,2.2,7-0.7,9.9L110.3,18.8z"/>
<g>
	<defs>
		
			<rect id="SVGID_11_" x="32.6" y="22.5" transform="matrix(0.707 -0.7072 0.7072 0.707 -3.8917 37.6419)" width="21.8" height="2"/>
	</defs>
	<clipPath id="SVGID_12_">
		<use xlink:href="#SVGID_11_"  style="overflow:visible;"/>
	</clipPath>
	<rect x="30.1" y="10.1" class="st8" width="26.9" height="26.9"/>
</g>
<path class="st3" d="M47.7,18.8c-2.9-2.9-7.4-3.2-9.9-0.7c-2.5,2.5-2.2,7,0.7,9.9L47.7,18.8z"/>
<line class="st0" x1="79" y1="22.5" x2="79" y2="25.5"/>
<line class="st0" x1="79" y1="92.5" x2="79" y2="95.5"/>
<line class="st0" x1="115.5" y1="59" x2="112.5" y2="59"/>
<line class="st0" x1="45.5" y1="59" x2="42.5" y2="59"/>
</svg>
