<svg version="1.1" baseProfile="basic" id="Layer_1"
	 xmlns="http://www.w3.org/2000/svg" xmlns:xlink="http://www.w3.org/1999/xlink" x="0px" y="0px" viewBox="-234 320 142.5 153"
	 xml:space="preserve">
  <defs>  
        <linearGradient id="logo-gradient" x1="50%" y1="0%" x2="50%" y2="100%" > 
            
            <stop offset="0%" stop-color="#0c5df1">
                <animate attributeName="stop-color" values="#0c5df1; #91e0f9; #0c5df1" dur="2s" repeatCount="indefinite"></animate>
            </stop>

            <stop offset="100%" stop-color="#91e0f9">
                <animate attributeName="stop-color" values="#91e0f9; #0c5df1; #91e0f9" dur="2s" repeatCount="indefinite"></animate>
            </stop>

        </linearGradient> 

    </defs>
  
<style type="text/css">
	.st0{fill-rule:evenodd;clip-rule:evenodd;fill:url(#logo-gradient);}
</style>
<path class="st0" d="M-166.1,381.2l3.5-2l3.5,2l-1.5,2.6l-0.7-0.4l-1.2-0.7l-1.1,0.7l0,0l-3.4,2l1.5,2.6l3.1-1.8l0.5,0.3l2.6,1.5
	l0.4-0.7l2.6-4.5l3-5.2l1.5-2.6l-2.6-1.5l-2.6-1.5l-0.9-0.5l-1.7-1l-1.3-0.7l-1.5-0.9l-1.5,0.9l-1.3,0.7l-1.5-2.6l2.8-1.6l1.5-0.9
	l1.5,0.9l3,1.7l5,2.9l2.6,1.5l1.5-2.6l1.5-2.6l1.5-2.6l-2.6-1.5l-9.5-5.5l-3-1.7l-1.5-0.9l-1.5,0.9l-3,1.7l-6.9,4l-2.6,1.5l-2.6,1.5
	l1.5,2.6l1.5,2.6l1.5,2.6l1.5,2.6l1.5,2.6l3,5.2l1.6-0.9L-166.1,381.2L-166.1,381.2z M-176.7,338.6l9.6-5.6l3-1.7l1.5-0.9l1.5,0.9
	l3,1.7l9.6,5.6l-1.5,2.6l-8.1-4.7l-3-1.7l-1.5-0.9l-1.5,0.9l-3,1.7l-8.1,4.7L-176.7,338.6L-176.7,338.6z M-176.3,345.3l9.2-5.3
	l3-1.7l1.5-0.9l1.5,0.9l3,1.7l9.2,5.3l4.5-7.8l-13.7-8l-3-1.7l-1.5-0.9l-1.5,0.9l-3,1.7l-13.7,7.9l1.5,2.6l1.5,2.6L-176.3,345.3
	L-176.3,345.3z M-175.9,352l8.8-5.1l3-1.7l1.5-0.9l1.5,0.9l3,1.7l8.8,5.1l-1.5,2.6l-7.3-4.2l-3-1.7l-1.5-0.9l-1.5,0.9l-3,1.7
	l-7.3,4.2L-175.9,352L-175.9,352z M-175.5,358.8l-1.5-2.7l-1.5-2.6l-1.5-2.6l12.9-7.5l3-1.7l1.5-0.9l1.5,0.9l3,1.7l12.9,7.5
	l-4.5,7.8l-8.4-4.9l-3-1.7l-1.5-0.9l-1.5,0.9l-3,1.7L-175.5,358.8L-175.5,358.8z M-163,375.9l-4.1,2.4l-0.5,0.3l-0.2-0.4l-1.3-2.2
	l-1.5-2.6l-1.5-2.6l-1.5-2.6l-1.5-2.6l2.6-1.5l5.4-3.1l3-1.7l1.5-0.9l1.5,0.9l3,1.7l8,4.6l-1.5,2.6l-6.5-3.8l-3-1.7l-1.5-0.9
	l-1.5,0.9l-3,1.7l-1.3,0.7l-2.6,1.5l1.5,2.6l1.5,2.6l0.9,1.5l0.6,1.1l2.4-1.4l1.5-0.9l1.3,0.7l2.6,1.5l2.6,1.5l-1.7,3
	C-159.6,377.9-161.3,376.9-163,375.9z"/>
<path class="st0" d="M-151.5,385.7l3.3,2v4.2h-3v-1v-1.4l-1-0.7h0.1l-3.4-2l-1.6,2.6l2.9,1.8v0.6v3.2h1.1h5.2l5.8-0.1l2.8-0.1v-3v-3
	v-1v-2v-1.5v-1.7l-1.3-0.9l-1.2-0.7l1.5-2.6l2.6,1.6l1.3,0.9v1.7v3.4v5.8v3.2h3.4h3h2.6v-3.2v-11v-3.5v-1.7l-1.3-0.9l-2.9-1.7
	l-6.8-4l-2.6-1.5l-2.6-1.5l-1.4,2.5l-1.5,2.6l-1.5,2.6l-1.5,2.6l-1.5,2.7l-3,5.2l1.5,0.9L-151.5,385.7L-151.5,385.7z M-120,355.2
	l9.6,5.6l3.2,1.7l1.7,0.9v1.7v3.5V380h-3v-9.6v-3.5v-1.7l-1.7-0.9l-3.1-1.7l-8.1-4.7L-120,355.2L-120,355.2z M-125.6,358.9l9.2,5.3
	l3.2,1.7l1.7,0.9v1.7v3.5v10.9h8.9v-16.1v-3.5v-1.7l-1.7-0.9l-3.1-1.7l-13.7-8l-1.5,2.6l-1.5,2.6L-125.6,358.9L-125.6,358.9z
	 M-131.2,362.6l8.8,5.1l2.8,1.7l1.3,0.9v1.7v3.5l0.5,10.4h-3.5v-8.6v-3.5V372l-1.3-0.9l-2.9-1.7l-7.2-4.2L-131.2,362.6L-131.2,362.6
	z M-136.8,366.3l1.5-2.6l1.5-2.6l1.5-2.6l12.9,7.5l3.2,1.7l1.7,0.9v1.7v3.5v15.1h-9.9V379v-3.5v-1.7l-1.3-0.9l-2.9-1.7L-136.8,366.3
	L-136.8,366.3z M-145.2,385.7l-4.1-2.4l-0.5-0.3l0.2-0.4l1.3-2.2l1.5-2.6l1.5-2.6l1.5-2.6l1.5-2.6l2.6,1.5l5.4,3.1l2.8,1.7l1.3,0.9
	v1.8v3.5v9.3h-3v-7.5v-3.5V379l-1.3-0.9l-2.9-1.7l-1.2-0.7l-2.6-1.5l-1.5,2.6l-1.5,2.6l-0.9,1.5l-0.7,1.1l2.2,1.4l1.3,0.9v1.5v3v3.2
	h-3C-145.2,389.9-145.2,387.7-145.2,385.7z"/>
<path class="st0" d="M-148.2,400.8v4l-3.3,2l-1.4-2.6l0.6-0.4l1.1-0.7v-1.3l0,0v-3.9h-3v3.4l-0.3,0.3l-2.5,1.5l0.4,0.7l2.6,4.5
	l3,5.2l1.5,2.6l2.6-1.5l2.6-1.5l0.9-0.5l1.7-1l1.1-0.7l1.3-0.9v-1.7v-1.5h3v3.2v1.7l-1.3,0.9l-2.9,1.7l-4.9,2.9l-2.6,1.6l1.5,2.6
	l1.5,2.6l1.5,2.6l2.6-1.5l9.5-5.5l2.8-1.7l1.3-0.9v-1.7v-3.5v-8v-3v-2.9h-2.6h-3l-3-0.1h-3h-3h-6.3v1.7V400.8L-148.2,400.8z
	 M-105.5,412.9V424v3.5v1.7l-1.7,0.9l-3.1,1.7l-9.6,5.6l-1.5-2.6l8.1-4.7l3.2-1.7l1.7-0.9v-1.7v-3.5V413h2.9V412.9z M-111.5,409.9
	v10.6v3.5v1.7l-1.7,0.9l-3.1,1.7l-9.2,5.3l4.5,7.8l13.6-7.9l3.2-1.7l1.7-0.9v-1.7v-3.5v-15.8h-3.5h-3H-111.5L-111.5,409.9z
	 M-118.4,406.8V417v3.5v1.7l-1.3,0.9l-2.9,1.7l-8.7,5.1l-1.5-2.6l7.3-4.2l2.8-1.7l1.3-0.9v-1.7v-3.5v-8.5H-118.4L-118.4,406.8z
	 M-124.4,403.9h3.4h3h3.5v14.9v3.5v1.7l-1.7,0.9l-3.1,1.7l-12.9,7.5l-4.5-7.8l8.3-4.9l2.8-1.7l1.3-0.9V417v-3.5v-9.6H-124.4z
	 M-144.9,406.1v-4.7v-0.5l0.4,0.1h2.6h3h3h3h2.6v2.9v6.2v3.5l0.2,1.7l-1.4,0.9l-2.9,1.7l-7.9,4.6l-1.5-2.6l6.5-3.8l2.8-1.7l1.3-0.9
	v-1.7v-3.5v-1.5v-2.9h-2.6h-3h-1.8h-1.6v2.7l0.2,1.7l-1.2,0.7l-2.5,1.5l-2.6,1.5l-1.7-3C-148.4,408.1-146.6,407.1-144.9,406.1z"/>
<path class="st0" d="M-159.1,411.4l-3.5,2l-3.5-2l1.5-2.6l0.7,0.4l1.2,0.7l1.1-0.7l0,0l3.4-2l-1.5-2.6l-3.1,1.8l-0.5-0.3l-2.6-1.5
	l-0.4,0.7l-2.6,4.5l-3,5.2l-1.5,2.6l2.6,1.5l2.6,1.5l0.9,0.5l1.7,1l1.3,0.7l1.5,0.9l1.5-0.9l1.3-0.7l1.5,2.6l-2.8,1.6l-1.5,0.9
	l-1.5-0.9l-3-1.7l-5-2.9l-2.6-1.5l-1.5,2.6l-1.5,2.6l-1.5,2.6l2.6,1.5l9.5,5.5l3,1.7l1.5,0.9l1.5-0.9l3-1.7l6.9-4l2.6-1.5l2.6-1.5
	l-1.5-2.6l-1.5-2.6l-1.5-2.6l-1.3-2.5l-1.5-2.6l-3-5.2l-1.6,0.9L-159.1,411.4L-159.1,411.4z M-148.5,454l-9.6,5.6l-3,1.7l-1.5,0.9
	l-1.5-0.9l-3-1.7l-9.6-5.6l1.5-2.6l8.1,4.7l3,1.7l1.5,0.9l1.5-0.9l3-1.7l8.1-4.7L-148.5,454L-148.5,454z M-148.9,447.2l-9.2,5.3
	l-3,1.7l-1.5,0.9l-1.5-0.9l-3-1.7l-9.2-5.3l-4.5,7.8l13.7,7.9l3,1.7l1.5,0.9l1.5-0.9l3-1.7l13.7-7.9l-1.5-2.6l-1.5-2.6L-148.9,447.2
	L-148.9,447.2z M-149.3,440.5l-8.8,5.1l-3,1.7l-1.5,0.9l-1.5-0.9l-3-1.7l-8.8-5.1l1.5-2.6l7.3,4.2l3,1.7l1.5,0.9l1.5-0.9l3-1.7
	l7.3-4.2L-149.3,440.5L-149.3,440.5z M-149.7,433.8l1.5,2.6l1.5,2.6l1.5,2.6l-12.9,7.5l-3,1.7l-1.5,0.9l-1.5-0.9l-3-1.7l-12.9-7.5
	l4.5-7.8l8.4,4.9l3,1.7l1.5,0.9l1.5-0.9l3-1.7L-149.7,433.8L-149.7,433.8z M-162.2,416.6l4.1-2.4l0.5-0.3l0.2,0.4l1.3,2.2l1.5,2.6
	l1.5,2.6l1.5,2.6l1.5,2.6l-2.6,1.5l-5.4,3.1l-3,1.7l-1.5,0.9l-1.5-0.9l-3-1.7l-8-4.6l1.5-2.6l6.5,3.8l3,1.7l1.5,0.9l1.5-0.9l3-1.7
	l1.3-0.7l2.6-1.5l-1.5-2.6l-1.5-2.6l-0.9-1.5l-0.6-1.1l-2.4,1.4l-1.5,0.9l-1.3-0.7l-2.6-1.5l-2.6-1.5l1.7-3
	C-165.6,414.6-163.9,415.6-162.2,416.6z"/>
<path class="st0" d="M-173.7,406.8l-3.3-2v-3.9h3v0.7v1.4l1,0.7h-0.1l3.4,2l1.6-2.6l-2.9-1.8v-0.6v-2.9h-1.1h-5.2l-5.8-0.1l-2.8-0.1
	v3v3v1v2v1.5v1.7l1.3,0.9l1.2,0.7l-1.6,2.9l-2.6-1.6l-1.3-0.9v-1.7v-3.5v-5.8v-2.9h-3.4h-3h-2.6v2.9v11v3.5v1.7l1.3,0.9l2.9,1.7
	l6.8,4l2.6,1.5l2.6,1.5l1.5-2.6l1.5-2.6l1.5-2.6l1.5-2.6l1.5-2.6l3-5.2l-1.5-0.9L-173.7,406.8L-173.7,406.8z M-205.2,437.4l-9.6-5.6
	l-3.2-1.7l-1.7-0.9v-1.7V424v-11.1h3v9.3v3.5v1.7l1.7,0.9l3.1,1.7l8.1,4.7L-205.2,437.4L-205.2,437.4z M-199.6,433.7l-9.2-5.3
	l-3.2-1.7l-1.7-0.9V424v-3.5v-10.6h-8.9v15.8v3.5v1.7l1.7,0.9l3.1,1.7l13.7,7.9l1.5-2.6l1.5-2.6L-199.6,433.7L-199.6,433.7z
	 M-194,430l-8.8-5.1l-2.7-1.7l-1.3-0.9v-1.7V417v-10.1h3v8.4v3.5v1.7l1.3,0.9l2.9,1.7l7.2,4.2L-194,430L-194,430z M-188.4,426.2
	l-1.5,2.6l-1.5,2.6l-1.5,2.6l-12.9-7.5l-3.2-1.7l-1.7-0.9v-1.7v-3.5v-14.8h9.9v9.6v3.5v1.7l1.3,0.9l2.9,1.7L-188.4,426.2
	L-188.4,426.2z M-180,406.8l4.1,2.4l0.5,0.3l-0.2,0.4l-1.3,2.2l-1.5,2.6l-1.5,2.6l-1.5,2.6l-1.5,2.6l-2.6-1.5l-5.4-3.1l-2.8-1.7
	l-1.3-0.9v-1.7v-3.5v-9.3h3v7.5v3.5v1.7l1.3,0.9l2.9,1.7l1.2,0.7l2.6,1.5l1.5-2.6l1.5-2.6l0.9-1.5l0.6-1.1l-2.2-1.4l-1.3-0.8v-1.5
	v-3v-2.9h3C-180,402.9-180,404.8-180,406.8z"/>
<path class="st0" d="M-177,391.7v-4l3.3-2l1.4,2.6l-0.6,0.4l-1.1,0.7v1.3l0,0v4.1h3v-3.7l0.3-0.3l2.5-1.5l-0.4-0.7l-2.6-4.5l-3-5.2
	l-1.5-2.6l-2.6,1.5l-2.6,1.5l-0.9,0.5l-1.7,1l-1.1,0.7l-1.3,0.9v1.7v1.5h-3v-3.2v-1.7l1.3-0.9l2.9-1.7l4.9-2.9l2.6-1.5l-1.5-2.6
	l-1.5-2.6l-1.5-2.6l-2.6,1.5l-9.5,5.5l-2.8,1.7l-1.3,0.9v1.7v3.5v8v3v3.2h2.6h3l3-0.1h3h3h6.3v-2V391.7L-177,391.7z M-219.7,379.9
	v-11.3v-3.5v-1.7l1.7-0.9l3.1-1.7l9.6-5.6l1.5,2.6l-8.1,4.7l-3.1,1.7l-1.7,0.9v1.7v3.5v9.6H-219.7L-219.7,379.9z M-213.7,382.9V372
	v-3.5v-1.7l1.7-0.9l3.1-1.7l9.2-5.3l-4.4-7.9l-13.7,8l-3.2,1.7l-1.7,0.9v1.7v3.5v16.1h3.4h3H-213.7L-213.7,382.9z M-206.8,385.7
	v-10.2V372v-1.7l1.3-0.9l2.9-1.7l8.7-5.1l1.5,2.6l-7.3,4.2l-2.8,1.7l-1.3,0.9v1.7v3.5v8.5H-206.8L-206.8,385.7z M-200.8,388.9h-3.5
	h-3h-3.5v-15.1v-3.5v-1.7l1.7-0.9l3.1-1.7l13-7.5l4.5,7.8l-8.4,4.9l-2.8,1.7l-1.3,0.9v1.7v3.5v9.9H-200.8z M-180.3,386.5v4.7v0.6
	l-0.4,0.1h-2.6h-3h-3h-3h-2.6v-3.2v-6.2V379l-0.2-1.7l1.4-0.9l2.9-1.7l7.9-4.6l1.5,2.6l-6.5,3.8l-2.8,1.7l-1.2,0.8v1.7v3.5v1.5v3.2
	h2.6h3h1.8h1.5V386l-0.2-1.7l1.2-0.7l2.5-1.5l2.6-1.5l1.7,3C-176.9,384.5-178.6,385.5-180.3,386.5z"/>
</svg>
