<?xml version="1.0" encoding="utf-8"?>
<!-- Generator: Adobe Illustrator 19.1.0, SVG Export Plug-In . SVG Version: 6.00 Build 0)  -->
<svg version="1.1" id="Layer_1" xmlns="http://www.w3.org/2000/svg" xmlns:xlink="http://www.w3.org/1999/xlink" x="0px" y="0px"
	 viewBox="0 0 415 138.7" style="enable-background:new 0 0 415 138.7;" xml:space="preserve">
<style type="text/css">
	.st0{fill-rule:evenodd;clip-rule:evenodd;fill:#2991EB;}
	.st1{fill:#2991EB;}
</style>
<path class="st0" d="M56.6,54.3l3.5-2l3.5,2l-1.5,2.6l-0.7-0.4l-1.2-0.7l-1.1,0.7l0,0l-3.5,2L57,61l3.1-1.8l0.5,0.3l2.6,1.5l0.4-0.7
	l2.6-4.5l3-5.2l1.5-2.6l-2.6-1.5l-2.6-1.5l-0.9-0.5l-1.7-1l-1.3-0.7l-1.5-0.9l-1.5,0.9l-1.3,0.7l-1.5-2.6l2.8-1.6l1.5-0.9l1.5,0.9
	l3,1.7l5,2.9l2.6,1.5l1.5-2.6l1.5-2.6l1.5-2.6L74.1,36l-9.5-5.5l-3-1.7l-1.5-0.9l-1.5,0.9l-3,1.7l-6.9,4L46,36l-2.6,1.5l1.5,2.6
	l1.5,2.6l1.5,2.6l1.5,2.6l1.5,2.6l3,5.2l1.6-0.9L56.6,54.3L56.6,54.3z M45.9,11.7l9.6-5.6l3-1.7l1.5-0.9l1.5,0.9l3,1.7l9.6,5.6
	l-1.5,2.6l-8.1-4.7l-3-1.7L60.1,7l-1.5,0.9l-3,1.7l-8.1,4.7L45.9,11.7L45.9,11.7z M46.3,18.4l9.2-5.3l3-1.7l1.5-0.9l1.5,0.9l3,1.7
	l9.2,5.3l4.5-7.8L64.6,2.6l-3-1.7L60.1,0l-1.5,0.9l-3,1.7l-13.8,7.9l1.5,2.6l1.5,2.6L46.3,18.4L46.3,18.4z M46.7,25.1l8.8-5.1l3-1.7
	l1.5-0.9l1.5,0.9l3,1.7l8.8,5.1l-1.5,2.6l-7.3-4.2l-3-1.7l-1.5-0.9l-1.5,0.9l-3,1.7l-7.3,4.2L46.7,25.1L46.7,25.1z M47.1,31.9
	l-1.5-2.6l-1.5-2.6L42.6,24l12.9-7.5l3-1.7l1.5-0.9l1.5,0.9l3,1.7L77.5,24L73,31.9L64.6,27l-3-1.7l-1.5-0.9l-1.5,0.9l-3,1.7
	L47.1,31.9L47.1,31.9z M59.6,49l-4.1,2.4l-0.5,0.3l-0.2-0.4L53.6,49l-1.5-2.6l-1.5-2.6L49,41.2l-1.5-2.6l2.6-1.5l5.4-3.1l3-1.7
	l1.5-0.9l1.5,0.9l3,1.7l8,4.6l-1.5,2.6l-6.5-3.8l-3-1.7l-1.5-0.9l-1.5,0.9l-3,1.7l-1.3,0.7l-2.6,1.5l1.5,2.6l1.5,2.6l0.9,1.5
	l0.6,1.1l2.4-1.4l1.5-0.9l1.3,0.7l2.6,1.5l2.6,1.5l-1.7,3C63.1,51,61.4,50,59.6,49z"/>
<path class="st0" d="M71.4,58.8l3.5,2l0,4l-3,0l0-0.9l0-1.4l-1.1-0.7l0,0l-3.5-2l-1.5,2.6l3.1,1.8l0,0.6l0,3h0.8l5.3,0l6,0l3,0l0-3
	v-3l0-1l0-2l0-1.5v-1.7l-1.5-0.9L81.2,54l1.5-2.6l2.8,1.6l1.5,0.9l0,1.7v3.5l0,5.8v3l3,0l3,0l3,0l0-3l0-11v-3.5l0-1.7l-1.5-0.9
	l-3-1.7l-6.9-4L82,40.5L79.3,39l-1.5,2.6l-1.5,2.6l-1.5,2.6l-1.5,2.6l-1.5,2.6l-3,5.2l1.6,0.9L71.4,58.8L71.4,58.8z M103,28.2
	l9.6,5.6l3,1.7l1.5,0.9l0,1.7v3.5l0,11.1h-3l0-9.4l0-3.5l0-1.7l-1.5-0.9l-3-1.7l-8.1-4.7L103,28.2L103,28.2z M97.3,32l9.2,5.3l3,1.7
	l1.5,0.9l0,1.7l0,3.5l0,10.7l9,0l0-15.9v-3.5l0-1.7l-1.5-0.9l-3-1.7l-13.8-7.9l-1.5,2.6l-1.5,2.6L97.3,32L97.3,32z M91.7,35.7
	l8.8,5.1l3,1.7l1.5,0.9l0,1.7l0,3.5l0,10.2h-3l0-8.5l0-3.5l0-1.7l-1.5-0.9l-3-1.7l-7.3-4.2L91.7,35.7L91.7,35.7z M86.1,39.4l1.5-2.6
	l1.5-2.6l1.5-2.6l12.9,7.5l3,1.7l1.5,0.9l0,1.7v3.5v15l-9,0l0-9.7v-3.5v-1.7L97.5,46l-3-1.7L86.1,39.4L86.1,39.4z M77.5,58.8
	l-4.1-2.4l-0.5-0.3l0.2-0.4l1.3-2.2l1.5-2.6l1.5-2.6l1.5-2.6l1.5-2.6l2.6,1.5l5.4,3.1l3,1.7l1.5,0.9l0,1.7l0,3.5l0,9.3l-3,0v-7.5
	l0-3.5l0-1.7l-1.5-0.9l-3-1.7l-1.3-0.7l-2.6-1.5L80,49.8l-1.5,2.6L77.7,54L77,55.1l2.4,1.4l1.5,0.9l0,1.5l0,3l0,3l-3.5,0
	C77.5,62.8,77.5,60.8,77.5,58.8z"/>
<path class="st0" d="M74.9,73.9l0,4l-3.5,2l-1.5-2.6l0.7-0.4l1.2-0.7v-1.3l0,0l0-4l-3,0l0,3.6l-0.5,0.3l-2.6,1.5l0.4,0.7l2.6,4.5
	l3,5.2l1.5,2.6l2.6-1.5l2.6-1.5l0.9-0.5l1.7-1l1.3-0.7l1.5-0.9v-1.7l0-1.5l3,0v3.2l0,1.7l-1.5,0.9l-3,1.7l-5,2.9l-2.6,1.5l1.5,2.6
	l1.5,2.6l1.5,2.6l2.6-1.5l9.5-5.5l3-1.7l1.5-0.9l0-1.7l0-3.5l0-8l0-3l0-3l-3,0l-3,0l-3,0l-3,0l-3,0l-6,0l0,1.8V73.9L74.9,73.9z
	 M117.1,86l0,11.1v3.5l0,1.7l-1.5,0.9l-3,1.7l-9.6,5.6l-1.5-2.6l8.1-4.7l3-1.7l1.5-0.9l0-1.7l0-3.5l0-9.4H117.1L117.1,86z
	 M111.1,82.9l0,10.7l0,3.5l0,1.7l-1.5,0.9l-3,1.7l-9.2,5.3l4.5,7.8l13.8-7.9l3-1.7l1.5-0.9l0-1.7v-3.5l0-15.9l-3,0l-3,0L111.1,82.9
	L111.1,82.9z M105.1,79.9l0,10.2l0,3.5l0,1.7l-1.5,0.9l-3,1.7l-8.8,5.1l-1.5-2.6l7.3-4.2l3-1.7l1.5-0.9l0-1.7l0-3.5l0-8.5
	L105.1,79.9L105.1,79.9z M99,76.9l3,0l3,0l3,0v15l0,3.5v1.7l-1.5,0.9l-3,1.7l-12.9,7.5l-4.5-7.8l8.4-4.9l3-1.7l1.5-0.9v-1.7v-3.5
	V76.9L99,76.9z M77.9,79.2l0-4.7l0-0.5l0.4,0h2.6l3,0l3,0h3l3,0l0,3v6.2l0,3.5l0,1.7l-1.5,0.9l-3,1.7l-8,4.6L78.9,93l6.5-3.8l3-1.7
	l1.5-0.9l0-1.7l0-3.5l0-1.5l0-3h-3l-3,0l-1.8,0l-1.2,0v2.8l0,1.7l-1.3,0.7L77,83.7l-2.6,1.5l-1.7-3C74.4,81.2,76.2,80.2,77.9,79.2z"
	/>
<path class="st0" d="M63.6,84.5l-3.5,2l-3.5-2l1.5-2.6l0.7,0.4l1.2,0.7l1.1-0.7l0,0l3.5-2l-1.5-2.6l-3.1,1.8l-0.5-0.3L57,77.7
	l-0.4,0.7L54,83l-3,5.2l-1.5,2.6l2.6,1.5l2.6,1.5l0.9,0.5l1.7,1l1.3,0.7l1.5,0.9l1.5-0.9l1.3-0.7l1.5,2.6l-2.8,1.6l-1.5,0.9
	l-1.5-0.9l-3-1.7l-5-2.9l-2.6-1.5L46.4,96l-1.5,2.6l-1.5,2.6l2.6,1.5l9.5,5.5l3,1.7l1.5,0.9l1.5-0.9l3-1.7l6.9-4l2.6-1.5l2.6-1.5
	l-1.5-2.6L73.7,96l-1.5-2.6l-1.5-2.6l-1.5-2.6l-3-5.2l-1.6,0.9L63.6,84.5L63.6,84.5z M74.2,127.1l-9.6,5.6l-3,1.7l-1.5,0.9l-1.5-0.9
	l-3-1.7l-9.6-5.6l1.5-2.6l8.1,4.7l3,1.7l1.5,0.9l1.5-0.9l3-1.7l8.1-4.7L74.2,127.1L74.2,127.1z M73.8,120.3l-9.2,5.3l-3,1.7
	l-1.5,0.9l-1.5-0.9l-3-1.7l-9.2-5.3l-4.5,7.8l13.8,7.9l3,1.7l1.5,0.9l1.5-0.9l3-1.7l13.8-7.9l-1.5-2.6l-1.5-2.6L73.8,120.3
	L73.8,120.3z M73.4,113.6l-8.8,5.1l-3,1.7l-1.5,0.9l-1.5-0.9l-3-1.7l-8.8-5.1l1.5-2.6l7.3,4.2l3,1.7l1.5,0.9l1.5-0.9l3-1.7l7.3-4.2
	L73.4,113.6L73.4,113.6z M73,106.9l1.5,2.6l1.5,2.6l1.5,2.6l-12.9,7.5l-3,1.7l-1.5,0.9l-1.5-0.9l-3-1.7l-12.9-7.5l4.5-7.8l8.4,4.9
	l3,1.7l1.5,0.9l1.5-0.9l3-1.7L73,106.9L73,106.9z M60.5,89.7l4.1-2.4l0.5-0.3l0.2,0.4l1.3,2.2l1.5,2.6l1.5,2.6l1.5,2.6l1.5,2.6
	l-2.6,1.5l-5.4,3.1l-3,1.7l-1.5,0.9l-1.5-0.9l-3-1.7l-8-4.6l1.5-2.6l6.5,3.8l3,1.7l1.5,0.9l1.5-0.9l3-1.7l1.3-0.7l2.6-1.5L67,96.4
	l-1.5-2.6l-0.9-1.5L64,91.2l-2.4,1.4l-1.5,0.9l-1.3-0.7l-2.6-1.5l-2.6-1.5l1.7-3C57,87.7,58.8,88.7,60.5,89.7z"/>
<path class="st0" d="M48.7,79.9l-3.5-2l0-4l3,0v0.9l0,1.4l1.1,0.7v0l3.5,2l1.5-2.6l-3.1-1.8l0-0.6l0-3h-0.8l-5.3,0l-6,0l-3,0l0,3v3
	l0,1l0,2l0,1.5v1.7l1.5,0.9l1.3,0.7l-1.5,2.6l-2.8-1.6l-1.5-0.9l0-1.7v-3.5l0-5.8v-3l-3,0l-3,0l-3,0l0,3l0,11v3.5l0,1.7l1.5,0.9
	l3,1.7l6.9,4l2.6,1.5l2.6,1.5l1.5-2.6l1.5-2.6l1.5-2.6l1.5-2.6l1.5-2.6l3-5.2l-1.6-0.9L48.7,79.9L48.7,79.9z M17.2,110.5l-9.6-5.6
	l-3-1.7L3,102.3v-1.7l0-3.5L3,86h3l0,9.4l0,3.5l0,1.7l1.5,0.9l3,1.7l8.1,4.7L17.2,110.5L17.2,110.5z M22.8,106.8l-9.2-5.3l-3-1.7
	L9,98.8l0-1.7l0-3.5l0-10.7l-9,0l0,15.9v3.5l0,1.7l1.5,0.9l3,1.7l13.8,7.9l1.5-2.6l1.5-2.6L22.8,106.8L22.8,106.8z M28.4,103
	L19.6,98l-3-1.7l-1.5-0.9l0-1.7l0-3.5l0-10.2h3l0,8.5l0,3.5l0,1.7l1.5,0.9l3,1.7l7.3,4.2L28.4,103L28.4,103z M34.1,99.3l-1.5,2.6
	l-1.5,2.6l-1.5,2.6l-12.9-7.5l-3-1.7l-1.5-0.9l0-1.7v-3.5v-15l9,0l0,9.7v3.5v1.7l1.5,0.9l3,1.7L34.1,99.3L34.1,99.3z M42.7,79.9
	l4.1,2.4l0.5,0.3L47,82.9l-1.3,2.2l-1.5,2.6l-1.5,2.6L41.2,93l-1.5,2.6l-2.6-1.5L31.7,91l-3-1.7l-1.5-0.9l0-1.7l0-3.5l0-9.3l3,0
	l0,7.5l0,3.5l0,1.7l1.5,0.9l3,1.7L36,90l2.6,1.5l1.5-2.6l1.5-2.6l0.9-1.5l0.6-1.1l-2.4-1.4l-1.5-0.9l0-1.5l0-3l0-3l3.5,0
	C42.7,75.9,42.7,77.9,42.7,79.9z"/>
<path class="st0" d="M45.2,64.8l0-4l3.5-2l1.5,2.6l-0.7,0.4l-1.2,0.7v1.3l0,0v4l3,0l0-3.6l0.5-0.3l2.6-1.5L54,61.8l-2.6-4.5l-3-5.2
	l-1.5-2.6l-2.6,1.5l-2.6,1.5L40.7,53L39,54l-1.3,0.7l-1.5,0.9v1.7l0,1.5l-3,0l0-3.2l0-1.7l1.5-0.9l3-1.7l5-2.9l2.6-1.5l-1.5-2.6
	l-1.5-2.6L40.8,39l-2.6,1.5L28.7,46l-3,1.7l-1.5,0.9l0,1.7l0,3.5l0,8l0,3l0,3l3,0l3,0l3,0l3,0l3,0l6,0V66L45.2,64.8L45.2,64.8z
	 M3,52.8V41.6l0-3.5l0-1.7l1.5-0.9l3-1.7l9.6-5.6l1.5,2.6l-8.1,4.7l-3,1.7L6,38.2l0,1.7l0,3.5l0,9.4H3L3,52.8z M9,55.8l0-10.7l0-3.5
	l0-1.7l1.5-0.9l3-1.7l9.2-5.3l-4.5-7.8L4.5,32.1l-3,1.7L0,34.7l0,1.7v3.5l0,15.9l3,0l3,0L9,55.8L9,55.8z M15.1,58.8l0-10.2l0-3.5
	l0-1.7l1.5-0.9l3-1.7l8.8-5.1l1.5,2.6l-7.3,4.2l-3,1.7l-1.5,0.9l0,1.7l0,3.5l0,8.5L15.1,58.8L15.1,58.8z M21.1,61.8l-3,0l-3,0l-3,0
	v-15l0-3.5v-1.7l1.5-0.9l3-1.7l12.9-7.5l4.5,7.8l-8.4,4.9l-3,1.7l-1.5,0.9v1.7v3.5V61.8L21.1,61.8z M42.2,59.6l0,4.7l0,0.5l-0.4,0
	h-2.6l-3,0l-3,0h-3l-3,0l0-3v-6.2l0-3.5l0-1.7l1.5-0.9l3-1.7l8-4.6l1.5,2.6l-6.5,3.8l-3,1.7l-1.5,0.9l0,1.7l0,3.5l0,1.5l0,3h3l3,0
	l1.8,0l1.2,0v-2.8l0-1.7l1.3-0.7l2.6-1.5l2.6-1.5l1.7,3C45.7,57.6,44,58.6,42.2,59.6z"/>
<path class="st1" d="M157.5,58.7c0-1,0.2-1.9,0.6-2.7c0.4-0.9,1-1.6,1.8-2.2c0.8-0.6,1.8-1.1,2.9-1.5c1.1-0.4,2.4-0.5,3.8-0.5
	c2.2,0,4.3,0.4,6.3,1.1c2,0.7,4,1.9,6,3.5l2.8-3.7c-2.2-1.8-4.5-3.1-6.8-3.9c-2.3-0.9-5.1-1.3-8.2-1.3c-2,0-3.9,0.3-5.6,0.9
	c-1.7,0.6-3.2,1.4-4.5,2.4c-1.3,1-2.2,2.3-2.9,3.7c-0.7,1.4-1,3-1,4.7c0,1.8,0.3,3.3,0.9,4.6c0.6,1.3,1.4,2.4,2.6,3.4
	c1.2,1,2.7,1.8,4.5,2.5c1.8,0.7,3.9,1.3,6.4,1.8c2.2,0.5,4.1,1,5.5,1.5c1.4,0.5,2.6,1.1,3.4,1.8c0.8,0.7,1.4,1.4,1.7,2.2
	c0.3,0.8,0.5,1.7,0.5,2.7c0,2.2-0.9,4-2.6,5.3c-1.7,1.3-4,2-6.9,2c-3,0-5.6-0.5-7.9-1.5c-2.3-1-4.5-2.5-6.8-4.6l-3,3.5
	c2.6,2.3,5.3,4,8.1,5.2c2.8,1.1,6,1.7,9.4,1.7c2.1,0,4.1-0.3,5.9-0.9c1.8-0.6,3.3-1.4,4.6-2.4c1.3-1.1,2.3-2.3,3-3.8
	c0.7-1.5,1.1-3.2,1.1-5c0-3.3-1.1-5.9-3.4-7.8c-2.3-1.9-5.8-3.3-10.5-4.4c-2.4-0.5-4.3-1-5.8-1.6c-1.5-0.5-2.7-1.2-3.5-1.8
	c-0.9-0.7-1.4-1.4-1.8-2.2C157.7,60.6,157.5,59.7,157.5,58.7L157.5,58.7z M231,48h-30.9v42.8h31.2v-4.4h-26.4v-15h23.3V67h-23.3
	V52.4H231V48L231,48z M284.2,56.1v34.6h4.8V48h-4.9l-15.6,23.3L253,48h-4.9v42.8h4.7V56.2L268.4,79h0.2L284.2,56.1L284.2,56.1z
	 M326.5,48h-18.2v42.8h19c2.3,0,4.4-0.3,6.4-0.8c1.9-0.5,3.6-1.3,4.9-2.3c1.4-1,2.4-2.2,3.1-3.7c0.7-1.5,1.1-3.1,1.1-4.9
	c0-1.5-0.2-2.8-0.7-3.9c-0.5-1.1-1.1-2.1-2-2.9c-0.8-0.8-1.8-1.5-2.9-2.1c-1.1-0.6-2.3-1.1-3.6-1.4c0.9-0.4,1.7-0.8,2.5-1.4
	c0.8-0.5,1.5-1.2,2.2-2c0.7-0.8,1.2-1.8,1.6-2.8c0.4-1.1,0.6-2.3,0.6-3.7c0-1.6-0.3-3.1-1-4.4c-0.7-1.3-1.6-2.4-2.8-3.4
	c-1.2-0.9-2.7-1.6-4.4-2.1C330.6,48.2,328.6,48,326.5,48L326.5,48z M325.7,67h-12.6V52.3h13c3.1,0,5.4,0.6,7,1.9
	c1.6,1.3,2.4,3,2.4,5.1c0,2.5-0.9,4.4-2.7,5.7C331,66.4,328.6,67,325.7,67L325.7,67z M327.4,86.4h-14.4V71.3h13.5
	c3.7,0,6.6,0.6,8.5,1.9c1.9,1.3,2.9,3.1,2.9,5.5c0,2.4-0.9,4.3-2.8,5.7C333.3,85.7,330.7,86.4,327.4,86.4L327.4,86.4z M360,48v42.8
	h4.8V48H360L360,48z M400.7,52.4H415V48h-33.6v4.5h14.4v38.3h4.9V52.4z"/>
</svg>
