<?xml version="1.0" encoding="utf-8"?>
<!-- Generator: Adobe Illustrator 19.1.0, SVG Export Plug-In . SVG Version: 6.00 Build 0)  -->
<svg version="1.1" id="Layer_1" xmlns="http://www.w3.org/2000/svg" xmlns:xlink="http://www.w3.org/1999/xlink" x="0px" y="0px"
	 viewBox="0 0 142.5 153" style="enable-background:new 0 0 142.5 153;" xml:space="preserve">
<style type="text/css">
	.st0{fill-rule:evenodd;clip-rule:evenodd;fill:#FFFFFF;}
</style>
<path class="st0" d="M67.9,61.2l3.5-2l3.5,2l-1.5,2.6l-0.7-0.4l-1.2-0.7l-1.1,0.7l0,0l-3.4,2l1.5,2.6l3.1-1.8l0.5,0.3l2.6,1.5
	l0.4-0.7l2.6-4.5l3-5.2l1.5-2.6l-2.6-1.5l-2.6-1.5l-0.9-0.5l-1.7-1l-1.3-0.7l-1.5-0.9l-1.5,0.9l-1.3,0.7l-1.5-2.6l2.8-1.6l1.5-0.9
	l1.5,0.9l3,1.7l5,2.9l2.6,1.5l1.5-2.6l1.5-2.6l1.5-2.6l-2.6-1.5l-9.5-5.5l-3-1.7l-1.5-0.9l-1.5,0.9l-3,1.7l-6.9,4l-2.6,1.5l-2.6,1.5
	l1.5,2.6l1.5,2.6l1.5,2.6l1.5,2.6l1.5,2.6l3,5.2l1.6-0.9L67.9,61.2L67.9,61.2z M57.3,18.6l9.6-5.6l3-1.7l1.5-0.9l1.5,0.9l3,1.7
	l9.6,5.6L84,21.2l-8.1-4.7l-3-1.7l-1.5-0.9l-1.5,0.9l-3,1.7l-8.1,4.7L57.3,18.6L57.3,18.6z M57.7,25.3l9.2-5.3l3-1.7l1.5-0.9
	l1.5,0.9l3,1.7l9.2,5.3l4.5-7.8L75.9,9.5l-3-1.7l-1.5-0.9l-1.5,0.9l-3,1.7l-13.7,7.9l1.5,2.6l1.5,2.6L57.7,25.3L57.7,25.3z M58.1,32
	l8.8-5.1l3-1.7l1.5-0.9l1.5,0.9l3,1.7l8.8,5.1l-1.5,2.6l-7.3-4.2l-3-1.7l-1.5-0.9l-1.5,0.9l-3,1.7l-7.3,4.2L58.1,32L58.1,32z
	 M58.5,38.8L57,36.1l-1.5-2.6L54,30.9l12.9-7.5l3-1.7l1.5-0.9l1.5,0.9l3,1.7l12.9,7.5l-4.5,7.8l-8.4-4.9l-3-1.7l-1.5-0.9l-1.5,0.9
	l-3,1.7L58.5,38.8L58.5,38.8z M71,55.9l-4.1,2.4l-0.5,0.3l-0.2-0.4l-1.3-2.2l-1.5-2.6l-1.5-2.6l-1.5-2.6l-1.5-2.6l2.6-1.5l5.4-3.1
	l3-1.7l1.5-0.9l1.5,0.9l3,1.7l8,4.6l-1.5,2.6l-6.5-3.8l-3-1.7l-1.5-0.9l-1.5,0.9l-3,1.7l-1.3,0.7L63,46.6l1.5,2.6l1.5,2.6l0.9,1.5
	l0.6,1.1l2.4-1.4l1.5-0.9l1.3,0.7l2.6,1.5l2.6,1.5l-1.7,3C74.4,57.9,72.7,56.9,71,55.9z"/>
<path class="st0" d="M82.5,65.7l3.3,2v4.2h-3v-1v-1.4l-1-0.7l0.1,0l-3.4-2l-1.6,2.6l2.9,1.8v0.6v3.2h1.1h5.2l5.8-0.1l2.8-0.1v-3v-3
	v-1v-2v-1.5v-1.7l-1.3-0.9l-1.2-0.7l1.5-2.6l2.6,1.6l1.3,0.9v1.7V66v5.8v3.2h3.4h3h2.6v-3.2v-11v-3.5v-1.7l-1.3-0.9l-2.9-1.7l-6.8-4
	l-2.6-1.5l-2.6-1.5L89,48.5l-1.5,2.6L86,53.7l-1.5,2.6L83,59l-3,5.2l1.5,0.9L82.5,65.7L82.5,65.7z M114,35.2l9.6,5.6l3.2,1.7
	l1.7,0.9v1.7v3.5v11.4h-3v-9.6v-3.5v-1.7l-1.7-0.9l-3.1-1.7l-8.1-4.7L114,35.2L114,35.2z M108.4,38.9l9.2,5.3l3.2,1.7l1.7,0.9v1.7
	V52v10.9h8.9V46.8v-3.5v-1.7l-1.7-0.9l-3.1-1.7L112.9,31l-1.5,2.6l-1.5,2.6L108.4,38.9L108.4,38.9z M102.8,42.6l8.8,5.1l2.8,1.7
	l1.3,0.9V52v3.5l0.5,10.4h-3.5v-8.6v-3.5V52l-1.3-0.9l-2.9-1.7l-7.2-4.2L102.8,42.6L102.8,42.6z M97.2,46.3l1.5-2.6l1.5-2.6l1.5-2.6
	l12.9,7.5l3.2,1.7l1.7,0.9v1.7v3.5v15.1h-9.9V59v-3.5v-1.7l-1.3-0.9l-2.9-1.7L97.2,46.3L97.2,46.3z M88.8,65.7l-4.1-2.4l-0.5-0.3
	l0.2-0.4l1.3-2.2l1.5-2.6l1.5-2.6l1.5-2.6l1.5-2.6l2.6,1.5l5.4,3.1l2.8,1.7l1.3,0.9V59v3.5v9.3l-3,0v-7.5v-3.5V59l-1.3-0.9l-2.9-1.7
	l-1.2-0.7l-2.6-1.5l-1.5,2.6l-1.5,2.6l-0.9,1.5L88.2,62l2.2,1.4l1.3,0.9v1.5v3v3.2h-3C88.8,69.9,88.8,67.7,88.8,65.7z"/>
<path class="st0" d="M85.8,80.8v4l-3.3,2l-1.4-2.6l0.6-0.4l1.1-0.7v-1.3v0v-3.9h-3v3.4l-0.3,0.3L77,83.1l0.4,0.7l2.6,4.5l3,5.2
	l1.5,2.6l2.6-1.5l2.6-1.5l0.9-0.5l1.7-1l1.1-0.7l1.3-0.9v-1.7v-1.5l3,0v3.2v1.7l-1.3,0.9l-2.9,1.7l-4.9,2.9L86,98.8l1.5,2.6L89,104
	l1.5,2.6l2.6-1.5l9.5-5.5l2.8-1.7l1.3-0.9v-1.7v-3.5v-8v-3v-2.9h-2.6h-3l-3-0.1l-3,0l-3,0h-6.3v1.7V80.8L85.8,80.8z M128.5,92.9V104
	v3.5v1.7l-1.7,0.9l-3.1,1.7l-9.6,5.6l-1.5-2.6l8.1-4.7l3.2-1.7l1.7-0.9v-1.7v-3.5v-9.3H128.5L128.5,92.9z M122.5,89.9v10.6v3.5v1.7
	l-1.7,0.9l-3.1,1.7l-9.2,5.3l4.5,7.8l13.6-7.9l3.2-1.7l1.7-0.9v-1.7v-3.5V89.9H128h-3H122.5L122.5,89.9z M115.6,86.8V97v3.5v1.7
	l-1.3,0.9l-2.9,1.7l-8.7,5.1l-1.5-2.6l7.3-4.2l2.8-1.7l1.3-0.9v-1.7v-3.5v-8.5L115.6,86.8L115.6,86.8z M109.6,83.9h3.4h3h3.5v14.9
	v3.5v1.7l-1.7,0.9l-3.1,1.7l-12.9,7.5l-4.5-7.8l8.3-4.9l2.8-1.7l1.3-0.9V97v-3.5V83.9L109.6,83.9z M89.1,86.1l0-4.7l0-0.5l0.4,0.1
	h2.6h3h3h3h2.6v2.9v6.2v3.5l0.2,1.7l-1.4,0.9l-2.9,1.7l-7.9,4.6l-1.5-2.6l6.5-3.8l2.8-1.7l1.3-0.9v-1.7v-3.5v-1.5v-2.9h-2.6h-3h-1.8
	h-1.6v2.7l0.2,1.7l-1.2,0.7l-2.5,1.5l-2.6,1.5l-1.7-3C85.6,88.1,87.4,87.1,89.1,86.1z"/>
<path class="st0" d="M74.9,91.4l-3.5,2l-3.5-2l1.5-2.6l0.7,0.4l1.2,0.7l1.1-0.7l0,0l3.4-2l-1.5-2.6l-3.1,1.8l-0.5-0.3l-2.6-1.5
	l-0.4,0.7l-2.6,4.5l-3,5.2l-1.5,2.6l2.6,1.5l2.6,1.5l0.9,0.5l1.7,1l1.3,0.7l1.5,0.9l1.5-0.9l1.3-0.7l1.5,2.6l-2.8,1.6l-1.5,0.9
	l-1.5-0.9l-3-1.7l-5-2.9l-2.6-1.5l-1.5,2.6l-1.5,2.6l-1.5,2.6l2.6,1.5l9.5,5.5l3,1.7l1.5,0.9l1.5-0.9l3-1.7l6.9-4l2.6-1.5l2.6-1.5
	l-1.5-2.6l-1.5-2.6l-1.5-2.6L82,97.7l-1.5-2.6l-3-5.2l-1.6,0.9L74.9,91.4L74.9,91.4z M85.5,134l-9.6,5.6l-3,1.7l-1.5,0.9l-1.5-0.9
	l-3-1.7l-9.6-5.6l1.5-2.6l8.1,4.7l3,1.7l1.5,0.9l1.5-0.9l3-1.7l8.1-4.7L85.5,134L85.5,134z M85.1,127.2l-9.2,5.3l-3,1.7l-1.5,0.9
	l-1.5-0.9l-3-1.7l-9.2-5.3l-4.5,7.8l13.7,7.9l3,1.7l1.5,0.9l1.5-0.9l3-1.7l13.7-7.9l-1.5-2.6l-1.5-2.6L85.1,127.2L85.1,127.2z
	 M84.7,120.5l-8.8,5.1l-3,1.7l-1.5,0.9l-1.5-0.9l-3-1.7l-8.8-5.1l1.5-2.6l7.3,4.2l3,1.7l1.5,0.9l1.5-0.9l3-1.7l7.3-4.2L84.7,120.5
	L84.7,120.5z M84.3,113.8l1.5,2.6l1.5,2.6l1.5,2.6l-12.9,7.5l-3,1.7l-1.5,0.9l-1.5-0.9l-3-1.7L54,121.6l4.5-7.8l8.4,4.9l3,1.7
	l1.5,0.9l1.5-0.9l3-1.7L84.3,113.8L84.3,113.8z M71.8,96.6l4.1-2.4l0.5-0.3l0.2,0.4l1.3,2.2l1.5,2.6l1.5,2.6l1.5,2.6l1.5,2.6
	l-2.6,1.5l-5.4,3.1l-3,1.7l-1.5,0.9l-1.5-0.9l-3-1.7l-8-4.6l1.5-2.6l6.5,3.8l3,1.7l1.5,0.9l1.5-0.9l3-1.7l1.3-0.7l2.6-1.5l-1.5-2.6
	l-1.5-2.6l-0.9-1.5l-0.6-1.1l-2.4,1.4l-1.5,0.9l-1.3-0.7l-2.6-1.5l-2.6-1.5l1.7-3C68.4,94.6,70.1,95.6,71.8,96.6z"/>
<path class="st0" d="M60.3,86.8l-3.3-2v-3.9h3v0.7v1.4l1,0.7l-0.1,0l3.4,2l1.6-2.6L63,81.3v-0.6v-2.9h-1.1h-5.2l-5.8-0.1l-2.8-0.1v3
	v3v1v2v1.5v1.7l1.3,0.9l1.2,0.7L49,94.3l-2.6-1.6l-1.3-0.9v-1.7v-3.5v-5.8v-2.9h-3.4h-3h-2.6v2.9v11v3.5V97l1.3,0.9l2.9,1.7l6.8,4
	l2.6,1.5l2.6,1.5l1.5-2.6l1.5-2.6l1.5-2.6l1.5-2.6l1.5-2.6l3-5.2l-1.5-0.9L60.3,86.8L60.3,86.8z M28.8,117.4l-9.6-5.6l-3.2-1.7
	l-1.7-0.9v-1.7V104V92.9h3v9.3v3.5v1.7l1.7,0.9l3.1,1.7l8.1,4.7L28.8,117.4L28.8,117.4z M34.4,113.7l-9.2-5.3l-3.2-1.7l-1.7-0.9V104
	v-3.5V89.9h-8.9v15.8v3.5v1.7l1.7,0.9l3.1,1.7l13.7,7.9l1.5-2.6l1.5-2.6L34.4,113.7L34.4,113.7z M40,110l-8.8-5.1l-2.7-1.7l-1.3-0.9
	v-1.7V97V86.9h3v8.4v3.5v1.7l1.3,0.9l2.9,1.7l7.2,4.2L40,110L40,110z M45.6,106.2l-1.5,2.6l-1.5,2.6l-1.5,2.6l-12.9-7.5l-3.2-1.7
	l-1.7-0.9v-1.7v-3.5V83.9h9.9v9.6V97v1.7l1.3,0.9l2.9,1.7L45.6,106.2L45.6,106.2z M54,86.8l4.1,2.4l0.5,0.3l-0.2,0.4l-1.3,2.2
	l-1.5,2.6l-1.5,2.6l-1.5,2.6l-1.5,2.6l-2.6-1.5l-5.4-3.1l-2.8-1.7l-1.3-0.9v-1.7v-3.5v-9.3l3,0v7.5v3.5v1.7l1.3,0.9l2.9,1.7l1.2,0.7
	l2.6,1.5l1.5-2.6l1.5-2.6l0.9-1.5l0.6-1.1l-2.2-1.4L51,88.3v-1.5v-3v-2.9h3C54,82.9,54,84.8,54,86.8z"/>
<path class="st0" d="M57,71.7v-4l3.3-2l1.4,2.6l-0.6,0.4L60,69.4v1.3v0v4.1h3v-3.7l0.3-0.3l2.5-1.5l-0.4-0.7l-2.6-4.5l-3-5.2
	l-1.5-2.6l-2.6,1.5l-2.6,1.5l-0.9,0.5l-1.7,1l-1.1,0.7l-1.3,0.9v1.7v1.5l-3,0v-3.2v-1.7l1.3-0.9l2.9-1.7l4.9-2.9l2.6-1.5l-1.5-2.6
	l-1.5-2.6l-1.5-2.6l-2.6,1.5l-9.5,5.5l-2.8,1.7l-1.3,0.9v1.7v3.5v8v3v3.2h2.6h3l3-0.1l3,0l3,0H57v-2V71.7L57,71.7z M14.3,59.9V48.6
	v-3.5v-1.7l1.7-0.9l3.1-1.7l9.6-5.6l1.5,2.6l-8.1,4.7L19,44.2l-1.7,0.9v1.7v3.5v9.6H14.3L14.3,59.9z M20.3,62.9V52v-3.5v-1.7
	l1.7-0.9l3.1-1.7l9.2-5.3L29.9,31L16.2,39L13,40.7l-1.7,0.9v1.7v3.5v16.1h3.4h3H20.3L20.3,62.9z M27.2,65.7V55.5V52v-1.7l1.3-0.9
	l2.9-1.7l8.7-5.1l1.5,2.6l-7.3,4.2l-2.8,1.7L30.2,52v1.7v3.5l0,8.5L27.2,65.7L27.2,65.7z M33.2,68.9h-3.5h-3h-3.5V53.8v-3.5v-1.7
	l1.7-0.9l3.1-1.7L41,38.5l4.5,7.8l-8.4,4.9l-2.8,1.7l-1.3,0.9v1.7V59V68.9L33.2,68.9z M53.7,66.5l0,4.7l0,0.6l-0.4,0.1h-2.6h-3h-3
	h-3h-2.6v-3.2v-6.2V59l-0.2-1.7l1.4-0.9l2.9-1.7l7.9-4.6l1.5,2.6l-6.5,3.8l-2.8,1.7L42.1,59v1.7v3.5v1.5v3.2h2.6h3h1.8H51V66
	l-0.2-1.7l1.2-0.7l2.5-1.5l2.6-1.5l1.7,3C57.1,64.5,55.4,65.5,53.7,66.5z"/>
</svg>
